<svg width="512" height="512" version="1.1" viewBox="0 0 135.5 135.5" xmlns="http://www.w3.org/2000/svg" xmlns:cc="http://creativecommons.org/ns#" xmlns:dc="http://purl.org/dc/elements/1.1/" xmlns:rdf="http://www.w3.org/1999/02/22-rdf-syntax-ns#" xmlns:xlink="http://www.w3.org/1999/xlink"><defs><pattern id="pattern15772" patternTransform="matrix(.3022 0 0 .3022 129.1 115.7)" xlink:href="#pattern15566"/><linearGradient id="linearGradient1768" x1="85.12" x2="426.9" y1="99.88" y2="99.88" gradientUnits="userSpaceOnUse"><stop stop-color="#333" offset="0"/><stop stop-color="#666" offset=".2776"/><stop stop-color="#fff" offset=".5"/><stop stop-color="#666" offset=".7224"/><stop stop-color="#333" offset="1"/></linearGradient><linearGradient id="linearGradient4392" x1="65.79" x2="69.68" y1="67.73" y2="67.73" gradientUnits="userSpaceOnUse"><stop stop-color="#f00" offset="0"/><stop stop-color="#fff" offset=".5"/><stop stop-color="#f00" offset="1"/></linearGradient><radialGradient id="radialGradient5294" cx="186.5" cy="375.1" r="25.78" gradientTransform="matrix(8.863e-8 1.235 -2 -9.821e-5 942.9 135.7)" gradientUnits="userSpaceOnUse"><stop stop-color="#fff" offset="0"/><stop stop-color="#f00" offset="1"/></radialGradient><linearGradient id="linearGradient8045" x1="47.62" x2="87.84" y1="49.98" y2="49.98" gradientTransform="matrix(1 0 0 2.118 0 -55.76)" gradientUnits="userSpaceOnUse"><stop stop-color="#4d4d4d" offset="0"/><stop stop-color="#fff" offset=".5"/><stop stop-color="#4d4d4d" offset="1"/></linearGradient><pattern id="pattern15566" width="28.882654" height="28.882669" patternTransform="translate(59.72 233.8)" patternUnits="userSpaceOnUse"><rect x="3.604e-6" width="14.44" height="14.44" fill="#333"/><rect x="14.44" width="14.44" height="14.44" fill="#ccc"/><rect transform="scale(-1)" x="-28.88" y="-28.88" width="14.44" height="14.44" fill="#333"/><rect transform="scale(-1)" x="-14.44" y="-28.88" width="14.44" height="14.44" fill="#ccc"/></pattern></defs><g><rect transform="matrix(.8508 .5255 -.9165 .4001 0 0)" x="125.1" y="32.44" width="55.64" height="61.44" fill="url(#pattern15772)" stroke="#000" stroke-linecap="square" stroke-width="1.272"/><rect x="65.79" y="26.43" width="3.885" height="77.05" fill="url(#linearGradient4392)"/><path transform="matrix(.1759 .07533 -.07533 .1759 61.41 21.91)" d="m229.1 402.4-26.59-12.64-9.865 27.74-9.865-27.74-26.59 12.64 12.64-26.59-27.74-9.865 27.74-9.865-12.64-26.59 26.59 12.64 9.865-27.74 9.865 27.74 26.59-12.64-12.64 26.59 27.74 9.865-27.74 9.865z" fill="url(#radialGradient5294)"/><rect x="47.62" y="40.48" width="40.22" height="9.395" fill="url(#linearGradient8045)" stroke="#000" stroke-linecap="round" stroke-linejoin="bevel" stroke-width=".2646"/><path transform="scale(.2646)" d="m85.12 0.1152v99.77l94.88 71.85h152l94.88-71.85v-99.77z" fill="url(#linearGradient1768)" stroke="#000" stroke-linecap="square"/></g><metadata><rdf:RDF><cc:Work rdf:about=""><dc:creator><cc:Agent><dc:title>Joachim de Fourestier</dc:title></cc:Agent></dc:creator></cc:Work></rdf:RDF></metadata></svg>
